<svg xmlns="http://www.w3.org/2000/svg" xmlns:xlink="http://www.w3.org/1999/xlink" version="1.1" width="1400.0000889437188" height="1500.0000415070688" style="width: 1400.0000889437188px; height: 1500.0000415070688px; background: #ffffff" viewBox="150.00000592958125 93.00000877578023 1400.0000889437188 1500.0000415070688"><style id="v-3" type="text/css">        .joint-element .scalable * {            vector-effect: non-scaling-stroke;        }    </style><defs joint-selector="defs"><marker id="v-21252848929" orient="auto" overflow="visible" markerUnits="userSpaceOnUse"><path id="v-96" stroke="#444444" fill="#444444" transform="rotate(180)" d="M 20 -10 0 0 20 10 Z"></path></marker></defs><g  joint-selector="layers" transform="matrix(1,0,0,1,0,0)"><g style="pointer-events: none;" ></g><g ></g><g  style="user-select: none;"><!--z-index:0--><!--z-index:1--><!--z-index:2--><!--z-index:3--><!--z-index:4--><!--z-index:5--><!--z-index:6--><!--z-index:7--><!--z-index:8--><!--z-index:9--><!--z-index:10--><!--z-index:11--><g   id="j_17"  transform="translate(20,1757)"><g id="v-140"><text  id="v-141" font-size="24px" xml:space="preserve" y="0.8em" font-weight="normal" text-anchor="start" fill="#444444" pointer-events="none" display="block" font-family="Tahoma, Verdana, Helvetica, Arial"><tspan  dy="0" display="none">среда, 11 марта 2026 г. в 19:44 Москва, стандартное время</tspan></text></g></g><!--z-index:12--><g   id="j_16"  transform="translate(20,1723)"><g id="v-138"><text  id="v-139" font-size="24px" xml:space="preserve" y="0.8em" font-weight="normal" text-anchor="start" fill="#444444" pointer-events="none" display="block" font-family="Tahoma, Verdana, Helvetica, Arial"><tspan  dy="0" display="none">L1 — Контекст системы</tspan></text></g></g><!--z-index:13--><g   id="j_15"  transform="translate(20,1677)"><g id="v-136"><text  id="v-137" font-size="36px" xml:space="preserve" y="0.8em" font-weight="normal" text-anchor="start" fill="#444444" pointer-events="none" display="block" font-family="Tahoma, Verdana, Helvetica, Arial"><tspan  dy="0" display="none">System Context View: GoFlow Pay</tspan></text></g></g><!--z-index:14--><g   id="j_18"  transform="translate(200,143)" style=""><g  id="v-145" style="opacity: 1;"><rect  x="0" y="160" width="400" height="240" rx="70" id="v-147" stroke-width="2" pointer-events="visiblePainted" fill="#1168bd" stroke="#0f5eaa" stroke-dasharray="" style="fill: rgb(17, 104, 189); stroke: rgb(15, 94, 170);"></rect><circle  cx="200" cy="88.88888888888889" r="88.88888888888889" id="v-146" stroke-width="2" pointer-events="visiblePainted" fill="#1168bd" stroke="#0f5eaa" stroke-dasharray="" style="fill: rgb(17, 104, 189); stroke: rgb(15, 94, 170);"></circle><line  x1="80" y1="266.6666666666667" x2="80" y2="400" id="v-153" stroke="#0f5eaa" stroke-width="1" stroke-dasharray="" style="stroke: rgb(15, 94, 170);"></line><line  x1="320" y1="266.6666666666667" x2="320" y2="400" id="v-154" stroke="#0f5eaa" stroke-width="1" stroke-dasharray="" style="stroke: rgb(15, 94, 170);"></line><text  id="v-148" font-size="33.599999999999994px" xml:space="preserve" y="188.10000000000002" font-weight="bold" text-anchor="middle" pointer-events="visible" font-family="Tahoma, Verdana, Helvetica, Arial" fill="#ffffff" dominant-baseline="hanging" transform="matrix(1,0,0,1,200,0)" style="fill: rgb(255, 255, 255);"><tspan  dy="0">Гость</tspan></text><text  id="v-149" font-size="16.799999999999997px" xml:space="preserve" y="229.70000000000002" text-anchor="middle" font-family="Tahoma, Verdana, Helvetica, Arial" fill="#ffffff" dominant-baseline="hanging" transform="matrix(1,0,0,1,200,0)" style="display: block; fill: rgb(255, 255, 255);"><tspan  dy="0">[Person]</tspan></text><text  id="v-150" font-size="24px" xml:space="preserve" y="261.5" text-anchor="middle" font-family="Tahoma, Verdana, Helvetica, Arial" fill="#ffffff" dominant-baseline="hanging" transform="matrix(1,0,0,1,200,0)" style="display: block; fill: rgb(255, 255, 255);"><tspan  dy="0">Незарегистрированный</tspan><tspan dy="1.2em" x="0" >пользователь. Может только</tspan><tspan dy="1.2em" x="0" >зарегистрироваться и войти в</tspan><tspan dy="1.2em" x="0" >систему.</tspan></text><g  id="v-151" font-weight="normal" text-anchor="middle" color="#ffffff" transform="matrix(1,0,0,1,197.5,368)" style="fill: rgb(255, 255, 255);" display="none"><g ></g><g ></g><g ></g><g ></g></g><image  id="v-152"></image></g></g><!--z-index:15--><g   id="j_19"  transform="translate(650,143)" style=""><g  id="v-158" style="opacity: 1;"><rect  x="0" y="160" width="400" height="240" rx="70" id="v-160" stroke-width="2" pointer-events="visiblePainted" fill="#1168bd" stroke="#0f5eaa" stroke-dasharray="" style="fill: rgb(17, 104, 189); stroke: rgb(15, 94, 170);"></rect><circle  cx="200" cy="88.88888888888889" r="88.88888888888889" id="v-159" stroke-width="2" pointer-events="visiblePainted" fill="#1168bd" stroke="#0f5eaa" stroke-dasharray="" style="fill: rgb(17, 104, 189); stroke: rgb(15, 94, 170);"></circle><line  x1="80" y1="266.6666666666667" x2="80" y2="400" id="v-166" stroke="#0f5eaa" stroke-width="1" stroke-dasharray="" style="stroke: rgb(15, 94, 170);"></line><line  x1="320" y1="266.6666666666667" x2="320" y2="400" id="v-167" stroke="#0f5eaa" stroke-width="1" stroke-dasharray="" style="stroke: rgb(15, 94, 170);"></line><text  id="v-161" font-size="33.599999999999994px" xml:space="preserve" y="173.70000000000002" font-weight="bold" text-anchor="middle" pointer-events="visible" font-family="Tahoma, Verdana, Helvetica, Arial" fill="#ffffff" dominant-baseline="hanging" transform="matrix(1,0,0,1,200,0)" style="fill: rgb(255, 255, 255);"><tspan  dy="0">Пользователь</tspan></text><text  id="v-162" font-size="16.799999999999997px" xml:space="preserve" y="215.3" text-anchor="middle" font-family="Tahoma, Verdana, Helvetica, Arial" fill="#ffffff" dominant-baseline="hanging" transform="matrix(1,0,0,1,200,0)" style="display: block; fill: rgb(255, 255, 255);"><tspan  dy="0">[Person]</tspan></text><text  id="v-163" font-size="24px" xml:space="preserve" y="247.10000000000002" text-anchor="middle" font-family="Tahoma, Verdana, Helvetica, Arial" fill="#ffffff" dominant-baseline="hanging" transform="matrix(1,0,0,1,200,0)" style="display: block; fill: rgb(255, 255, 255);"><tspan  dy="0">Авторизованный</tspan><tspan dy="1.2em" x="0" >представитель компании.</tspan><tspan dy="1.2em" x="0" >Создаёт платежи,</tspan><tspan dy="1.2em" x="0" >просматривает историю и</tspan><tspan dy="1.2em" x="0" >баланс.</tspan></text><g  id="v-164" font-weight="normal" text-anchor="middle" color="#ffffff" transform="matrix(1,0,0,1,197.5,368)" style="fill: rgb(255, 255, 255);" display="none"><g ></g><g ></g><g ></g><g ></g></g><image  id="v-165"></image></g></g><!--z-index:16--><g   id="j_20"  transform="translate(1100,143)" style=""><g  id="v-171" style="opacity: 1;"><rect  x="0" y="160" width="400" height="240" rx="70" id="v-173" stroke-width="2" pointer-events="visiblePainted" fill="#1168bd" stroke="#0f5eaa" stroke-dasharray="" style="fill: rgb(17, 104, 189); stroke: rgb(15, 94, 170);"></rect><circle  cx="200" cy="88.88888888888889" r="88.88888888888889" id="v-172" stroke-width="2" pointer-events="visiblePainted" fill="#1168bd" stroke="#0f5eaa" stroke-dasharray="" style="fill: rgb(17, 104, 189); stroke: rgb(15, 94, 170);"></circle><line  x1="80" y1="266.6666666666667" x2="80" y2="400" id="v-179" stroke="#0f5eaa" stroke-width="1" stroke-dasharray="" style="stroke: rgb(15, 94, 170);"></line><line  x1="320" y1="266.6666666666667" x2="320" y2="400" id="v-180" stroke="#0f5eaa" stroke-width="1" stroke-dasharray="" style="stroke: rgb(15, 94, 170);"></line><text  id="v-174" font-size="33.599999999999994px" xml:space="preserve" y="188.10000000000002" font-weight="bold" text-anchor="middle" pointer-events="visible" font-family="Tahoma, Verdana, Helvetica, Arial" fill="#ffffff" dominant-baseline="hanging" transform="matrix(1,0,0,1,200,0)" style="fill: rgb(255, 255, 255);"><tspan  dy="0">Администратор</tspan></text><text  id="v-175" font-size="16.799999999999997px" xml:space="preserve" y="229.70000000000002" text-anchor="middle" font-family="Tahoma, Verdana, Helvetica, Arial" fill="#ffffff" dominant-baseline="hanging" transform="matrix(1,0,0,1,200,0)" style="display: block; fill: rgb(255, 255, 255);"><tspan  dy="0">[Person]</tspan></text><text  id="v-176" font-size="24px" xml:space="preserve" y="261.5" text-anchor="middle" font-family="Tahoma, Verdana, Helvetica, Arial" fill="#ffffff" dominant-baseline="hanging" transform="matrix(1,0,0,1,200,0)" style="display: block; fill: rgb(255, 255, 255);"><tspan  dy="0">Привилегированный</tspan><tspan dy="1.2em" x="0" >пользователь. Управляет</tspan><tspan dy="1.2em" x="0" >компаниями и просматривает</tspan><tspan dy="1.2em" x="0" >аудит-лог.</tspan></text><g  id="v-177" font-weight="normal" text-anchor="middle" color="#ffffff" transform="matrix(1,0,0,1,197.5,368)" style="fill: rgb(255, 255, 255);" display="none"><g ></g><g ></g><g ></g><g ></g></g><image  id="v-178"></image></g></g><!--z-index:17--><g   id="j_21"  transform="translate(625,1243)" style=""><g  id="v-184" style="opacity: 1;"><rect  id="v-185" rx="1" ry="1" stroke-width="2" pointer-events="visiblePainted" fill="#666666" stroke="#5c5c5c" stroke-dasharray="" width="450" height="300" style="fill: rgb(102, 102, 102); stroke: rgb(92, 92, 92);"></rect><text  id="v-186" font-size="33.599999999999994px" xml:space="preserve" y="72.5" font-weight="bold" text-anchor="middle" pointer-events="visible" font-family="Tahoma, Verdana, Helvetica, Arial" fill="#ffffff" dominant-baseline="hanging" transform="matrix(1,0,0,1,225,0)" style="fill: rgb(255, 255, 255);"><tspan  dy="0">SMTP-сервер</tspan></text><text  id="v-187" font-size="16.799999999999997px" xml:space="preserve" y="114.1" text-anchor="middle" font-family="Tahoma, Verdana, Helvetica, Arial" fill="#ffffff" dominant-baseline="hanging" transform="matrix(1,0,0,1,225,0)" style="display: block; fill: rgb(255, 255, 255);"><tspan  dy="0">[Software System]</tspan></text><text  id="v-188" font-size="24px" xml:space="preserve" y="145.89999999999998" text-anchor="middle" font-family="Tahoma, Verdana, Helvetica, Arial" fill="#ffffff" dominant-baseline="hanging" transform="matrix(1,0,0,1,225,0)" style="display: block; fill: rgb(255, 255, 255);"><tspan  dy="0">Получает и отображает</tspan><tspan dy="1.2em" x="0" >email-уведомления о статусе</tspan><tspan dy="1.2em" x="0" >платежа.</tspan></text><g  id="v-189" color="#ffffff" transform="matrix(1,0,0,1,222.5,268)" style="fill: rgb(255, 255, 255);" display="none"><g ></g><g ></g><g ></g><g ></g></g><image  id="v-190"></image></g></g><!--z-index:18--><g   id="j_22"  transform="translate(625,743)" style=""><g  id="v-194" style="opacity: 1;"><rect  id="v-195" rx="1" ry="1" stroke-width="2" pointer-events="visiblePainted" fill="#1168bd" stroke="#0f5eaa" stroke-dasharray="" width="450" height="300" style="fill: rgb(17, 104, 189); stroke: rgb(15, 94, 170);"></rect><text  id="v-196" font-size="33.599999999999994px" xml:space="preserve" y="43.70000000000002" font-weight="bold" text-anchor="middle" pointer-events="visible" font-family="Tahoma, Verdana, Helvetica, Arial" fill="#ffffff" dominant-baseline="hanging" transform="matrix(1,0,0,1,225,0)" style="fill: rgb(255, 255, 255);"><tspan  dy="0">GoFlow Pay</tspan></text><text  id="v-197" font-size="16.799999999999997px" xml:space="preserve" y="85.30000000000001" text-anchor="middle" font-family="Tahoma, Verdana, Helvetica, Arial" fill="#ffffff" dominant-baseline="hanging" transform="matrix(1,0,0,1,225,0)" style="display: block; fill: rgb(255, 255, 255);"><tspan  dy="0">[Software System]</tspan></text><text  id="v-198" font-size="24px" xml:space="preserve" y="117.10000000000001" text-anchor="middle" font-family="Tahoma, Verdana, Helvetica, Arial" fill="#ffffff" dominant-baseline="hanging" transform="matrix(1,0,0,1,225,0)" style="display: block; fill: rgb(255, 255, 255);"><tspan  dy="0">Система для межкорпоративных</tspan><tspan dy="1.2em" x="0" >платежей. Принимает запросы на</tspan><tspan dy="1.2em" x="0" >перевод средств, проверяет</tspan><tspan dy="1.2em" x="0" >баланс, выполняет переводы и</tspan><tspan dy="1.2em" x="0" >уведомляет участников.</tspan></text><g  id="v-199" color="#ffffff" transform="matrix(1,0,0,1,210,268)" style="fill: rgb(255, 255, 255);" display="none"><g  transform="translate(5 0)"><svg xmlns="http://www.w3.org/2000/svg" width="20" height="20" fill="currentColor" viewBox="0 0 16 16"><path fill-rule="evenodd" d="M6.5 12a5.5 5.5 0 1 0 0-11 5.5 5.5 0 0 0 0 11zM13 6.5a6.5 6.5 0 1 1-13 0 6.5 6.5 0 0 1 13 0z"></path><path d="M10.344 11.742c.03.04.062.078.098.115l3.85 3.85a1 1 0 0 0 1.415-1.414l-3.85-3.85a1.007 1.007 0 0 0-.115-.1 6.538 6.538 0 0 1-1.398 1.4z"></path><path fill-rule="evenodd" d="M6.5 3a.5.5 0 0 1 .5.5V6h2.5a.5.5 0 0 1 0 1H7v2.5a.5.5 0 0 1-1 0V7H3.5a.5.5 0 0 1 0-1H6V3.5a.5.5 0 0 1 .5-.5z"></path></svg></g><g ></g><g ></g><g ></g></g><image  id="v-200"></image></g></g><!--z-index:19--><g   id="j_23"  style="opacity: 1;"><path fill="none" cursor="pointer" stroke="transparent" stroke-linecap="round" joint-selector="wrapper" id="v-212" stroke-width="10" stroke-linejoin="round" d="M 563.64 543 L 727.27 743"></path><path fill="none" pointer-events="none" joint-selector="line" id="v-211" stroke="#444444" stroke-width="2" stroke-linejoin="round" stroke-dasharray="8 8" d="M 563.64 543 L 727.27 743" marker-end="url(#v-21252848929)"></path><g id="v-204" ><g id="v-205"  label-idx="0" cursor="move" transform="matrix(1,0,0,1,645.4550170898438,643)" style="cursor: default;"><rect joint-selector="rect" id="v-208" fill="#ffffff" rx="3" ry="3" x="-95.65287017822266" y="-24.835250854492188" width="193.80406188964844" height="53.04846954345703" pointer-events="none"  style="display: block;"></rect><text joint-selector="text" id="v-207" font-size="24px" xml:space="preserve" fill="#444444" text-anchor="middle" pointer-events="none" font-family="Tahoma, Verdana, Helvetica, Arial" font-weight="normal"  style="display: block;"><tspan  dy="-0.3em">Регистрируется,</tspan><tspan dy="1.2em" x="0" >входит в систему</tspan></text></g><g id="v-206"  label-idx="1" cursor="move" transform="matrix(1,0,0,1,635.4550170898438,669.4000244140625)" style="cursor: default;"><rect joint-selector="rect" id="v-210" fill="#ffffff" rx="3" ry="3" x="1.1102230246251565e-16" y="0" width="0" height="0"  display="none"></rect><text joint-selector="text" id="v-209" fill="#000000" font-size="14" text-anchor="middle" text-vertical-anchor="middle" pointer-events="none"></text></g></g></g><!--z-index:20--><g   id="j_24"  style="opacity: 1;"><path fill="none" cursor="pointer" stroke="transparent" stroke-linecap="round" joint-selector="wrapper" id="v-224" stroke-width="10" stroke-linejoin="round" d="M 850 543 L 850 743"></path><path fill="none" pointer-events="none" joint-selector="line" id="v-223" stroke="#444444" stroke-width="2" stroke-linejoin="round" stroke-dasharray="8 8" d="M 850 543 L 850 743" marker-end="url(#v-21252848929)"></path><g id="v-216" ><g id="v-217"  label-idx="0" cursor="move" transform="matrix(1,0,0,1,850,643)" style="cursor: default;"><rect joint-selector="rect" id="v-220" fill="#ffffff" rx="3" ry="3" x="-99.71265411376953" y="-53.635250091552734" width="199.42530822753906" height="110.64846801757812" pointer-events="none"  style="display: block;"></rect><text joint-selector="text" id="v-219" font-size="24px" xml:space="preserve" fill="#444444" text-anchor="middle" pointer-events="none" font-family="Tahoma, Verdana, Helvetica, Arial" font-weight="normal"  style="display: block;"><tspan  dy="-1.4999999999999998em">Создаёт платежи,</tspan><tspan dy="1.2em" x="0" >просматривает</tspan><tspan dy="1.2em" x="0" >историю и</tspan><tspan dy="1.2em" x="0" >баланс</tspan></text></g><g id="v-218"  label-idx="1" cursor="move" transform="matrix(1,0,0,1,840,698.2000122070312)" style="cursor: default;"><rect joint-selector="rect" id="v-222" fill="#ffffff" rx="3" ry="3" x="1.1102230246251565e-16" y="0" width="0" height="0"  display="none"></rect><text joint-selector="text" id="v-221" fill="#000000" font-size="14" text-anchor="middle" text-vertical-anchor="middle" pointer-events="none"></text></g></g></g><!--z-index:21--><g   id="j_25"  style="opacity: 1;"><path fill="none" cursor="pointer" stroke="transparent" stroke-linecap="round" joint-selector="wrapper" id="v-236" stroke-width="10" stroke-linejoin="round" d="M 1136.36 543 L 972.73 743"></path><path fill="none" pointer-events="none" joint-selector="line" id="v-235" stroke="#444444" stroke-width="2" stroke-linejoin="round" stroke-dasharray="8 8" d="M 1136.36 543 L 972.73 743" marker-end="url(#v-21252848929)"></path><g id="v-228" ><g id="v-229"  label-idx="0" cursor="move" transform="matrix(1,0,0,1,1054.5450439453125,643)" style="cursor: default;"><rect joint-selector="rect" id="v-232" fill="#ffffff" rx="3" ry="3" x="-84.55735778808594" y="-53.635250091552734" width="169.1881866455078" height="110.64846801757812" pointer-events="none"  style="display: block;"></rect><text joint-selector="text" id="v-231" font-size="24px" xml:space="preserve" fill="#444444" text-anchor="middle" pointer-events="none" font-family="Tahoma, Verdana, Helvetica, Arial" font-weight="normal"  style="display: block;"><tspan  dy="-1.4999999999999998em">Управляет</tspan><tspan dy="1.2em" x="0" >системой,</tspan><tspan dy="1.2em" x="0" >просматривает</tspan><tspan dy="1.2em" x="0" >аудит-лог</tspan></text></g><g id="v-230"  label-idx="1" cursor="move" transform="matrix(1,0,0,1,1044.5450439453125,698.2000122070312)" style="cursor: default;"><rect joint-selector="rect" id="v-234" fill="#ffffff" rx="3" ry="3" x="1.1102230246251565e-16" y="0" width="0" height="0"  display="none"></rect><text joint-selector="text" id="v-233" fill="#000000" font-size="14" text-anchor="middle" text-vertical-anchor="middle" pointer-events="none"></text></g></g></g><!--z-index:22--><g   id="j_26"  style="opacity: 1;"><path fill="none" cursor="pointer" stroke="transparent" stroke-linecap="round" joint-selector="wrapper" id="v-248" stroke-width="10" stroke-linejoin="round" d="M 850 1043 L 850 1243"></path><path fill="none" pointer-events="none" joint-selector="line" id="v-247" stroke="#444444" stroke-width="2" stroke-linejoin="round" stroke-dasharray="8 8" d="M 850 1043 L 850 1243" marker-end="url(#v-21252848929)"></path><g id="v-240" ><g id="v-241"  label-idx="0" cursor="move" transform="matrix(1,0,0,1,850,1143)" style="cursor: default;"><rect joint-selector="rect" id="v-244" fill="#ffffff" rx="3" ry="3" x="-77.77880859375" y="-53.635250091552734" width="155.5576171875" height="110.64846801757812" pointer-events="none"  style="display: block;"></rect><text joint-selector="text" id="v-243" font-size="24px" xml:space="preserve" fill="#444444" text-anchor="middle" pointer-events="none" font-family="Tahoma, Verdana, Helvetica, Arial" font-weight="normal"  style="display: block;"><tspan  dy="-1.4999999999999998em">Отправляет</tspan><tspan dy="1.2em" x="0" >email-</tspan><tspan dy="1.2em" x="0" >уведомления,</tspan><tspan dy="1.2em" x="0" >SMTP</tspan></text></g><g id="v-242"  label-idx="1" cursor="move" transform="matrix(1,0,0,1,840,1198.199951171875)" style="cursor: default;"><rect joint-selector="rect" id="v-246" fill="#ffffff" rx="3" ry="3" x="1.1102230246251565e-16" y="0" width="0" height="0"  display="none"></rect><text joint-selector="text" id="v-245" fill="#000000" font-size="14" text-anchor="middle" text-vertical-anchor="middle" pointer-events="none"></text></g></g></g><!--z-index:23--><!--z-index:24--><!--z-index:25--><!--z-index:26--><!--z-index:27--></g><g  style="user-select: none;"></g><g ></g><g  display="none"><g ><g  data-tool-name="vertices" ><path fill="none" stroke="transparent" stroke-width="10" cursor="cell"  joint-selector="connection" d="M 563.64 543 L 727.27 743"></path></g></g><g ><g  data-tool-name="vertices" ><path fill="none" stroke="transparent" stroke-width="10" cursor="cell"  joint-selector="connection" d="M 850 543 L 850 743"></path></g></g><g ><g  data-tool-name="vertices" ><path fill="none" stroke="transparent" stroke-width="10" cursor="cell"  joint-selector="connection" d="M 1136.36 543 L 972.73 743"></path></g></g><g ><g  data-tool-name="vertices" ><path fill="none" stroke="transparent" stroke-width="10" cursor="cell"  joint-selector="connection" d="M 850 1043 L 850 1243"></path></g></g><!--z-index:1--></g></g></svg>