<svg xmlns="http://www.w3.org/2000/svg" xmlns:xlink="http://www.w3.org/1999/xlink" contentStyleType="text/css" data-diagram-type="DESCRIPTION" height="1607px" preserveAspectRatio="none" style="width:1141px;height:1607px;background:#FFFFFF;" version="1.1" viewBox="0 0 1141 1607" width="1141px" zoomAndPan="magnify"><defs/><g><!--cluster GoFlow Pay--><g class="cluster" data-entity="GoFlow Pay" data-source-line="13" data-uid="ent0008" id="cluster_GoFlow Pay"><rect fill="none" height="1500" rx="2.5" ry="2.5" style="stroke:#181818;stroke-width:1;" width="721.55" x="414.02" y="101.03"/><text fill="#000000" font-family="sans-serif" font-size="14" font-weight="bold" lengthAdjust="spacing" textLength="80.1917" x="734.6992" y="117.9959">GoFlow Pay</text></g><!--cluster ??????????????--><g class="cluster" data-entity=".............." data-source-line="14" data-uid="ent0009" id="cluster_.............."><rect fill="none" height="238" rx="2.5" ry="2.5" style="stroke:#181818;stroke-width:1;" width="206.69" x="480.68" y="147.03"/><text fill="#000000" font-family="sans-serif" font-size="14" font-weight="bold" lengthAdjust="spacing" textLength="123.3675" x="522.3413" y="163.9959">&#1040;&#1091;&#1090;&#1077;&#1085;&#1090;&#1080;&#1092;&#1080;&#1082;&#1072;&#1094;&#1080;&#1103;</text></g><!--cluster ?????????? ??????--><g class="cluster" data-entity=".......... ......" data-source-line="20" data-uid="ent0013" id="cluster_.......... ......"><rect fill="none" height="267" rx="2.5" ry="2.5" style="stroke:#181818;stroke-width:1;" width="249.65" x="459.2" y="409.03"/><text fill="#000000" font-family="sans-serif" font-size="14" font-weight="bold" lengthAdjust="spacing" textLength="142.9534" x="512.5483" y="425.9959">&#1059;&#1087;&#1088;&#1072;&#1074;&#1083;&#1077;&#1085;&#1080;&#1077; &#1089;&#1095;&#1105;&#1090;&#1086;&#1084;</text></g><!--cluster ?????????? ? ?????--><g class="cluster" data-entity=".......... . ....." data-source-line="26" data-uid="ent0017" id="cluster_.......... . ....."><rect fill="none" height="281" rx="2.5" ry="2.5" style="stroke:#181818;stroke-width:1;" width="268.73" x="449.66" y="700.03"/><text fill="#000000" font-family="sans-serif" font-size="14" font-weight="bold" lengthAdjust="spacing" textLength="153.0054" x="507.5223" y="716.9959">&#1055;&#1086;&#1087;&#1086;&#1083;&#1085;&#1077;&#1085;&#1080;&#1077; &#1080; &#1074;&#1099;&#1074;&#1086;&#1076;</text></g><!--cluster ???????--><g class="cluster" data-entity="......." data-source-line="32" data-uid="ent0021" id="cluster_......."><rect fill="none" height="359" rx="2.5" ry="2.5" style="stroke:#181818;stroke-width:1;" width="292.01" x="438.02" y="1005.03"/><text fill="#000000" font-family="sans-serif" font-size="14" font-weight="bold" lengthAdjust="spacing" textLength="64.5397" x="551.7551" y="1021.9959">&#1055;&#1083;&#1072;&#1090;&#1077;&#1078;&#1080;</text></g><!--cluster ?????????????????--><g class="cluster" data-entity="................." data-source-line="39" data-uid="ent0026" id="cluster_................."><rect fill="none" height="189" rx="2.5" ry="2.5" style="stroke:#181818;stroke-width:1;" width="249.77" x="459.14" y="1388.03"/><text fill="#000000" font-family="sans-serif" font-size="14" font-weight="bold" lengthAdjust="spacing" textLength="152.1794" x="507.9353" y="1404.9959">&#1040;&#1076;&#1084;&#1080;&#1085;&#1080;&#1089;&#1090;&#1088;&#1080;&#1088;&#1086;&#1074;&#1072;&#1085;&#1080;&#1077;</text></g><!--cluster ?????????????? ? ??????--><g class="cluster" data-entity=".............. . ......" data-source-line="44" data-uid="ent0029" id="cluster_.............. . ......"><rect fill="none" height="276" rx="2.5" ry="2.5" style="stroke:#181818;stroke-width:1;" width="292.54" x="819.03" y="147.03"/><text fill="#000000" font-family="sans-serif" font-size="14" font-weight="bold" lengthAdjust="spacing" textLength="191.4772" x="869.5614" y="163.9959">&#1042;&#1079;&#1072;&#1080;&#1084;&#1086;&#1076;&#1077;&#1081;&#1089;&#1090;&#1074;&#1080;&#1077; &#1089; &#1073;&#1072;&#1085;&#1082;&#1086;&#1084;</text></g><!--entity UC_ext1--><g class="entity" data-entity="UC_ext1" data-source-line="50" data-uid="ent0033" id="entity_UC_ext1"><ellipse cx="965.2964" cy="1246.0333" fill="#F1F1F1" rx="130.1664" ry="28.4333" style="stroke:#181818;stroke-width:0.5;"/><text fill="#000000" font-family="sans-serif" font-size="14" lengthAdjust="spacing" textLength="235.7871" x="847.4029" y="1252.0672">&#1055;&#1088;&#1086;&#1074;&#1077;&#1088;&#1080;&#1090;&#1100; &#1076;&#1086;&#1089;&#1090;&#1072;&#1090;&#1086;&#1095;&#1085;&#1086;&#1089;&#1090;&#1100; &#1073;&#1072;&#1083;&#1072;&#1085;&#1089;&#1072;</text></g><!--entity UC_ext2--><g class="entity" data-entity="UC_ext2" data-source-line="51" data-uid="ent0034" id="entity_UC_ext2"><ellipse cx="965.3012" cy="747.0322" fill="#F1F1F1" rx="108.4612" ry="24.0922" style="stroke:#181818;stroke-width:0.5;"/><text fill="#000000" font-family="sans-serif" font-size="14" lengthAdjust="spacing" textLength="188.1453" x="871.2286" y="753.0662">&#1047;&#1072;&#1095;&#1080;&#1089;&#1083;&#1080;&#1090;&#1100; &#1089;&#1088;&#1077;&#1076;&#1089;&#1090;&#1074;&#1072; &#1085;&#1072; &#1089;&#1095;&#1105;&#1090;</text></g><!--entity UC_ext3--><g class="entity" data-entity="UC_ext3" data-source-line="52" data-uid="ent0035" id="entity_UC_ext3"><ellipse cx="965.3026" cy="865.0285" fill="#F1F1F1" rx="104.3926" ry="23.2785" style="stroke:#181818;stroke-width:0.5;"/><text fill="#000000" font-family="sans-serif" font-size="14" lengthAdjust="spacing" textLength="178.9753" x="875.8149" y="871.0625">&#1057;&#1087;&#1080;&#1089;&#1072;&#1090;&#1100; &#1089;&#1088;&#1077;&#1076;&#1089;&#1090;&#1074;&#1072; &#1089;&#1086; &#1089;&#1095;&#1105;&#1090;&#1072;</text></g><!--entity UC1--><g class="entity" data-entity="UC1" data-source-line="15" data-uid="ent0010" id="entity_UC1"><ellipse cx="584.033" cy="276.0286" fill="#F1F1F1" rx="87.343" ry="19.8686" style="stroke:#181818;stroke-width:0.5;"/><text fill="#000000" font-family="sans-serif" font-size="14" lengthAdjust="spacing" textLength="139.1595" x="514.4533" y="282.0626">&#1047;&#1072;&#1088;&#1077;&#1075;&#1080;&#1089;&#1090;&#1088;&#1080;&#1088;&#1086;&#1074;&#1072;&#1090;&#1100;&#1089;&#1103;</text></g><!--entity UC2--><g class="entity" data-entity="UC2" data-source-line="16" data-uid="ent0011" id="entity_UC2"><ellipse cx="584.0259" cy="203.0292" fill="#F1F1F1" rx="76.1959" ry="17.6392" style="stroke:#181818;stroke-width:0.5;"/><text fill="#000000" font-family="sans-serif" font-size="14" lengthAdjust="spacing" textLength="111.0896" x="528.4811" y="209.0631">&#1042;&#1086;&#1081;&#1090;&#1080; &#1074; &#1089;&#1080;&#1089;&#1090;&#1077;&#1084;&#1091;</text></g><!--entity UC3--><g class="entity" data-entity="UC3" data-source-line="17" data-uid="ent0012" id="entity_UC3"><ellipse cx="584.0275" cy="350.0335" fill="#F1F1F1" rx="81.4175" ry="18.6835" style="stroke:#181818;stroke-width:0.5;"/><text fill="#000000" font-family="sans-serif" font-size="14" lengthAdjust="spacing" textLength="124.5295" x="521.7628" y="356.0675">&#1042;&#1099;&#1081;&#1090;&#1080; &#1080;&#1079; &#1089;&#1080;&#1089;&#1090;&#1077;&#1084;&#1099;</text></g><!--entity UC4--><g class="entity" data-entity="UC4" data-source-line="21" data-uid="ent0014" id="entity_UC4"><ellipse cx="584.0257" cy="471.0271" fill="#F1F1F1" rx="105.7357" ry="23.5471" style="stroke:#181818;stroke-width:0.5;"/><text fill="#000000" font-family="sans-serif" font-size="14" lengthAdjust="spacing" textLength="182.0133" x="493.019" y="477.0611">&#1055;&#1088;&#1086;&#1089;&#1084;&#1086;&#1090;&#1088;&#1077;&#1090;&#1100; &#1073;&#1072;&#1083;&#1072;&#1085;&#1089; &#1089;&#1095;&#1105;&#1090;&#1072;</text></g><!--entity UC5--><g class="entity" data-entity="UC5" data-source-line="22" data-uid="ent0015" id="entity_UC5"><ellipse cx="584.028" cy="553.0276" fill="#F1F1F1" rx="107.588" ry="23.9176" style="stroke:#181818;stroke-width:0.5;"/><text fill="#000000" font-family="sans-serif" font-size="14" lengthAdjust="spacing" textLength="186.1853" x="490.9354" y="559.0616">&#1055;&#1088;&#1086;&#1089;&#1084;&#1086;&#1090;&#1088;&#1077;&#1090;&#1100; &#1076;&#1072;&#1085;&#1085;&#1099;&#1077; &#1089;&#1095;&#1105;&#1090;&#1072;</text></g><!--entity UC6--><g class="entity" data-entity="UC6" data-source-line="23" data-uid="ent0016" id="entity_UC6"><ellipse cx="584.0335" cy="636.0347" fill="#F1F1F1" rx="108.8235" ry="24.1647" style="stroke:#181818;stroke-width:0.5;"/><text fill="#000000" font-family="sans-serif" font-size="14" lengthAdjust="spacing" textLength="188.9573" x="489.5549" y="642.0687">&#1055;&#1088;&#1080;&#1074;&#1103;&#1079;&#1072;&#1090;&#1100; &#1073;&#1072;&#1085;&#1082;&#1086;&#1074;&#1089;&#1082;&#1080;&#1081; &#1089;&#1095;&#1105;&#1090;</text></g><!--entity UC7--><g class="entity" data-entity="UC7" data-source-line="27" data-uid="ent0018" id="entity_UC7"><ellipse cx="584.025" cy="764.033" fill="#F1F1F1" rx="118.365" ry="26.073" style="stroke:#181818;stroke-width:0.5;"/><text fill="#000000" font-family="sans-serif" font-size="14" lengthAdjust="spacing" textLength="210.1112" x="478.9694" y="770.067">&#1057;&#1086;&#1079;&#1076;&#1072;&#1090;&#1100; &#1079;&#1072;&#1103;&#1074;&#1082;&#1091; &#1085;&#1072; &#1087;&#1086;&#1087;&#1086;&#1083;&#1085;&#1077;&#1085;&#1080;&#1077;</text></g><!--entity UC8--><g class="entity" data-entity="UC8" data-source-line="28" data-uid="ent0019" id="entity_UC8"><ellipse cx="584.0268" cy="848.0294" fill="#F1F1F1" rx="100.5468" ry="22.5094" style="stroke:#181818;stroke-width:0.5;"/><text fill="#000000" font-family="sans-serif" font-size="14" lengthAdjust="spacing" textLength="170.2113" x="498.9212" y="854.0633">&#1057;&#1086;&#1079;&#1076;&#1072;&#1090;&#1100; &#1079;&#1072;&#1103;&#1074;&#1082;&#1091; &#1085;&#1072; &#1074;&#1099;&#1074;&#1086;&#1076;</text></g><!--entity UC9--><g class="entity" data-entity="UC9" data-source-line="29" data-uid="ent0020" id="entity_UC9"><ellipse cx="584.0272" cy="935.0328" fill="#F1F1F1" rx="114.5772" ry="29.6728" style="stroke:#181818;stroke-width:0.5;"/><text fill="#000000" font-family="sans-serif" font-size="14" lengthAdjust="spacing" textLength="152.3894" x="507.8325" y="931.1156">&#1055;&#1088;&#1086;&#1089;&#1084;&#1086;&#1090;&#1088;&#1077;&#1090;&#1100; &#1080;&#1089;&#1090;&#1086;&#1088;&#1080;&#1102;</text><text fill="#000000" font-family="sans-serif" font-size="14" lengthAdjust="spacing" textLength="159.5294" x="504.2625" y="950.1835">&#1087;&#1086;&#1087;&#1086;&#1083;&#1085;&#1077;&#1085;&#1080;&#1081; &#1080; &#1074;&#1099;&#1074;&#1086;&#1076;&#1086;&#1074;</text></g><!--entity UC10--><g class="entity" data-entity="UC10" data-source-line="33" data-uid="ent0022" id="entity_UC10"><ellipse cx="584.0255" cy="1246.0291" fill="#F1F1F1" rx="74.8455" ry="17.3691" style="stroke:#181818;stroke-width:0.5;"/><text fill="#000000" font-family="sans-serif" font-size="14" lengthAdjust="spacing" textLength="107.5056" x="530.2727" y="1252.0631">&#1057;&#1086;&#1079;&#1076;&#1072;&#1090;&#1100; &#1087;&#1083;&#1072;&#1090;&#1105;&#1078;</text></g><!--entity UC11--><g class="entity" data-entity="UC11" data-source-line="34" data-uid="ent0023" id="entity_UC11"><ellipse cx="584.0301" cy="1323.032" fill="#F1F1F1" rx="112.0101" ry="24.802" style="stroke:#181818;stroke-width:0.5;"/><text fill="#000000" font-family="sans-serif" font-size="14" lengthAdjust="spacing" textLength="196.0693" x="485.9955" y="1329.066">&#1055;&#1088;&#1086;&#1089;&#1084;&#1086;&#1090;&#1088;&#1077;&#1090;&#1100; &#1089;&#1090;&#1072;&#1090;&#1091;&#1089; &#1087;&#1083;&#1072;&#1090;&#1077;&#1078;&#1072;</text></g><!--entity UC12--><g class="entity" data-entity="UC12" data-source-line="35" data-uid="ent0024" id="entity_UC12"><ellipse cx="584.0342" cy="1071.0308" fill="#F1F1F1" rx="130.0042" ry="28.4008" style="stroke:#181818;stroke-width:0.5;"/><text fill="#000000" font-family="sans-serif" font-size="14" lengthAdjust="spacing" textLength="235.4371" x="466.3156" y="1077.0648">&#1055;&#1088;&#1086;&#1089;&#1084;&#1086;&#1090;&#1088;&#1077;&#1090;&#1100; &#1080;&#1089;&#1090;&#1086;&#1088;&#1080;&#1102; &#1090;&#1088;&#1072;&#1085;&#1079;&#1072;&#1082;&#1094;&#1080;&#1081;</text></g><!--entity UC13--><g class="entity" data-entity="UC13" data-source-line="36" data-uid="ent0025" id="entity_UC13"><ellipse cx="584.0306" cy="1164.0301" fill="#F1F1F1" rx="113.9306" ry="29.4601" style="stroke:#181818;stroke-width:0.5;"/><text fill="#000000" font-family="sans-serif" font-size="14" lengthAdjust="spacing" textLength="159.8794" x="504.0909" y="1161.2527">&#1055;&#1086;&#1083;&#1091;&#1095;&#1080;&#1090;&#1100; &#1091;&#1074;&#1077;&#1076;&#1086;&#1084;&#1083;&#1077;&#1085;&#1080;&#1077;</text><text fill="#000000" font-family="sans-serif" font-size="14" lengthAdjust="spacing" textLength="147.2654" x="510.3979" y="1180.3206">&#1086; &#1088;&#1077;&#1079;&#1091;&#1083;&#1100;&#1090;&#1072;&#1090;&#1077; &#1087;&#1083;&#1072;&#1090;&#1077;&#1078;&#1072;</text></g><!--entity UC14--><g class="entity" data-entity="UC14" data-source-line="40" data-uid="ent0027" id="entity_UC14"><ellipse cx="584.0304" cy="1454.0276" fill="#F1F1F1" rx="108.8804" ry="28.3376" style="stroke:#181818;stroke-width:0.5;"/><text fill="#000000" font-family="sans-serif" font-size="14" lengthAdjust="spacing" textLength="159.3614" x="504.3497" y="1452.9099">&#1055;&#1088;&#1086;&#1089;&#1084;&#1086;&#1090;&#1088;&#1077;&#1090;&#1100; &#1072;&#1091;&#1076;&#1080;&#1090;-&#1083;&#1086;&#1075;</text><text fill="#000000" font-family="sans-serif" font-size="14" lengthAdjust="spacing" textLength="112.7136" x="527.6737" y="1471.9778">&#1074;&#1089;&#1077;&#1093; &#1090;&#1088;&#1072;&#1085;&#1079;&#1072;&#1082;&#1094;&#1080;&#1081;</text></g><!--entity UC15--><g class="entity" data-entity="UC15" data-source-line="41" data-uid="ent0028" id="entity_UC15"><ellipse cx="584.0299" cy="1539.03" fill="#F1F1F1" rx="97.3999" ry="21.88" style="stroke:#181818;stroke-width:0.5;"/><text fill="#000000" font-family="sans-serif" font-size="14" lengthAdjust="spacing" textLength="162.9594" x="502.5503" y="1545.0639">&#1059;&#1087;&#1088;&#1072;&#1074;&#1083;&#1103;&#1090;&#1100; &#1082;&#1086;&#1084;&#1087;&#1072;&#1085;&#1080;&#1103;&#1084;&#1080;</text></g><!--entity UC_bank1--><g class="entity" data-entity="UC_bank1" data-source-line="45" data-uid="ent0030" id="entity_UC_bank1"><ellipse cx="965.3003" cy="295.0341" fill="#F1F1F1" rx="130.2703" ry="28.4541" style="stroke:#181818;stroke-width:0.5;"/><text fill="#000000" font-family="sans-serif" font-size="14" lengthAdjust="spacing" textLength="236.0111" x="847.2947" y="301.068">&#1055;&#1086;&#1076;&#1090;&#1074;&#1077;&#1088;&#1076;&#1080;&#1090;&#1100; &#1087;&#1086;&#1089;&#1090;&#1091;&#1087;&#1083;&#1077;&#1085;&#1080;&#1077; &#1089;&#1088;&#1077;&#1076;&#1089;&#1090;&#1074;</text></g><!--entity UC_bank2--><g class="entity" data-entity="UC_bank2" data-source-line="46" data-uid="ent0031" id="entity_UC_bank2"><ellipse cx="965.3014" cy="383.0303" fill="#F1F1F1" rx="110.4014" ry="24.4803" style="stroke:#181818;stroke-width:0.5;"/><text fill="#000000" font-family="sans-serif" font-size="14" lengthAdjust="spacing" textLength="192.4853" x="869.0587" y="389.0642">&#1055;&#1086;&#1076;&#1090;&#1074;&#1077;&#1088;&#1076;&#1080;&#1090;&#1100; &#1074;&#1099;&#1074;&#1086;&#1076; &#1089;&#1088;&#1077;&#1076;&#1089;&#1090;&#1074;</text></g><!--entity UC_bank3--><g class="entity" data-entity="UC_bank3" data-source-line="47" data-uid="ent0032" id="entity_UC_bank3"><ellipse cx="965.3004" cy="208.0281" fill="#F1F1F1" rx="105.1904" ry="23.4381" style="stroke:#181818;stroke-width:0.5;"/><text fill="#000000" font-family="sans-serif" font-size="14" lengthAdjust="spacing" textLength="180.7813" x="874.9098" y="214.062">&#1055;&#1086;&#1083;&#1091;&#1095;&#1080;&#1090;&#1100; &#1089;&#1090;&#1072;&#1090;&#1091;&#1089; &#1086;&#1087;&#1077;&#1088;&#1072;&#1094;&#1080;&#1080;</text></g><!--entity Guest--><g class="entity" data-entity="Guest" data-source-line="5" data-uid="ent0002" id="entity_Guest"><ellipse cx="348.7819" cy="245" fill="#F1F1F1" rx="8" ry="8" style="stroke:#181818;stroke-width:0.5;"/><path d="M348.7819,253 L348.7819,280 M335.7819,261 L361.7819,261 M348.7819,280 L335.7819,295 M348.7819,280 L361.7819,295" fill="none" style="stroke:#181818;stroke-width:0.5;"/><text fill="#000000" font-family="sans-serif" font-size="14" lengthAdjust="spacing" textLength="36.4839" x="330.54" y="311.4659">&#1043;&#1086;&#1089;&#1090;&#1100;</text></g><!--entity User--><g class="entity" data-entity="User" data-source-line="6" data-uid="ent0003" id="entity_User"><ellipse cx="221.8728" cy="817" fill="#F1F1F1" rx="8" ry="8" style="stroke:#181818;stroke-width:0.5;"/><path d="M221.8728,825 L221.8728,852 M208.8728,833 L234.8728,833 M221.8728,852 L208.8728,867 M221.8728,852 L234.8728,867" fill="none" style="stroke:#181818;stroke-width:0.5;"/><text fill="#000000" font-family="sans-serif" font-size="14" lengthAdjust="spacing" textLength="95.3256" x="174.21" y="883.4659">&#1055;&#1086;&#1083;&#1100;&#1079;&#1086;&#1074;&#1072;&#1090;&#1077;&#1083;&#1100;</text></g><!--entity Admin--><g class="entity" data-entity="Admin" data-source-line="7" data-uid="ent0004" id="entity_Admin"><ellipse cx="59.6058" cy="1423" fill="#F1F1F1" rx="8" ry="8" style="stroke:#181818;stroke-width:0.5;"/><path d="M59.6058,1431 L59.6058,1458 M46.6058,1439 L72.6058,1439 M59.6058,1458 L46.6058,1473 M59.6058,1458 L72.6058,1473" fill="none" style="stroke:#181818;stroke-width:0.5;"/><text fill="#000000" font-family="sans-serif" font-size="14" lengthAdjust="spacing" textLength="107.2116" x="6" y="1489.4659">&#1040;&#1076;&#1084;&#1080;&#1085;&#1080;&#1089;&#1090;&#1088;&#1072;&#1090;&#1086;&#1088;</text></g><!--entity Bank--><g class="entity" data-entity="Bank" data-source-line="8" data-uid="ent0005" id="entity_Bank"><ellipse cx="584.0249" cy="14" fill="#F1F1F1" rx="8" ry="8" style="stroke:#181818;stroke-width:0.5;"/><path d="M584.0249,22 L584.0249,49 M571.0249,30 L597.0249,30 M584.0249,49 L571.0249,64 M584.0249,49 L597.0249,64" fill="none" style="stroke:#181818;stroke-width:0.5;"/><text fill="#000000" font-family="sans-serif" font-size="14" lengthAdjust="spacing" textLength="32.4099" x="567.82" y="80.4659">&#1041;&#1072;&#1085;&#1082;</text></g><!--link User to Guest--><g class="link" data-entity-1="User" data-entity-2="Guest" data-source-line="10" data-uid="lnk6" id="link_User_Guest"><path d="M224.72,808.23 C229.58,724.38 246.25,524.22 299.54,366.03 C307.01,343.85 310.2972,336.0297 320.7472,318.7197" fill="none" id="User-to-Guest" style="stroke:#181818;stroke-width:1;"/><polygon fill="none" points="330.05,303.31,315.6107,315.6188,325.8838,321.8206,330.05,303.31" style="stroke:#181818;stroke-width:1;"/></g><!--link Admin to User--><g class="link" data-entity-1="Admin" data-entity-2="User" data-source-line="11" data-uid="lnk7" id="link_Admin_User"><path d="M71.12,1414.27 C100.16,1304.47 176.6272,1015.3216 205.7172,905.3416" fill="none" id="Admin-to-User" style="stroke:#181818;stroke-width:1;"/><polygon fill="none" points="210.32,887.94,199.9167,903.8073,211.5178,906.8758,210.32,887.94" style="stroke:#181818;stroke-width:1;"/></g><!--link Guest to UC1--><g class="link" data-entity-1="Guest" data-entity-2="UC1" data-source-line="55" data-uid="lnk36" id="link_Guest_UC1"><path d="M367.31,276.03 C394.59,276.03 442.99,276.03 490.34,276.03" fill="none" id="Guest-to-UC1" style="stroke:#181818;stroke-width:1;"/><polygon fill="#181818" points="496.34,276.03,487.34,272.03,491.34,276.03,487.34,280.03,496.34,276.03" style="stroke:#181818;stroke-width:1;"/></g><!--link Guest to UC2--><g class="link" data-entity-1="Guest" data-entity-2="UC2" data-source-line="56" data-uid="lnk37" id="link_Guest_UC2"><path d="M367.03,262.17 C377.69,254.28 391.98,244.82 406.02,239.03 C440.52,224.8 475.2636,216.957 508.9136,211.637" fill="none" id="Guest-to-UC2" style="stroke:#181818;stroke-width:1;"/><polygon fill="#181818" points="514.84,210.7,505.3258,208.1545,509.9013,211.4808,506.575,216.0564,514.84,210.7" style="stroke:#181818;stroke-width:1;"/></g><!--link User to UC3--><g class="link" data-entity-1="User" data-entity-2="UC3" data-source-line="58" data-uid="lnk38" id="link_User_UC3"><path d="M228.46,808 C242.31,724.44 286.23,530.91 406.02,431.03 C443.53,399.76 489.4176,379.9353 527.2176,366.9053" fill="none" id="User-to-UC3" style="stroke:#181818;stroke-width:1;"/><polygon fill="#181818" points="532.89,364.95,523.0778,364.1014,528.163,366.5795,525.6849,371.6646,532.89,364.95" style="stroke:#181818;stroke-width:1;"/></g><!--link User to UC4--><g class="link" data-entity-1="User" data-entity-2="UC4" data-source-line="59" data-uid="lnk39" id="link_User_UC4"><path d="M231.76,808.27 C250.26,735.7 300.29,582.79 406.02,512.03 C429.74,496.15 452.9567,487.6535 480.6267,481.6435" fill="none" id="User-to-UC4" style="stroke:#181818;stroke-width:1;"/><polygon fill="#181818" points="486.49,480.37,476.8461,478.3714,481.6039,481.4313,478.5441,486.1891,486.49,480.37" style="stroke:#181818;stroke-width:1;"/></g><!--link User to UC5--><g class="link" data-entity-1="User" data-entity-2="UC5" data-source-line="60" data-uid="lnk40" id="link_User_UC5"><path d="M240.4,808.02 C267.41,751.2 324.76,648.07 406.02,594.03 C429.4,578.48 452.0516,570.0859 479.3116,564.0559" fill="none" id="User-to-UC5" style="stroke:#181818;stroke-width:1;"/><polygon fill="#181818" points="485.17,562.76,475.5185,560.7983,480.288,563.8399,477.2464,568.6094,485.17,562.76" style="stroke:#181818;stroke-width:1;"/></g><!--link User to UC6--><g class="link" data-entity-1="User" data-entity-2="UC6" data-source-line="61" data-uid="lnk41" id="link_User_UC6"><path d="M269.79,812.84 C306.05,786.37 358,750 406.02,722.03 C447.65,697.78 491.6554,676.6376 527.6954,660.2976" fill="none" id="User-to-UC6" style="stroke:#181818;stroke-width:1;"/><polygon fill="#181818" points="533.16,657.82,523.3114,657.8933,528.6062,659.8846,526.6148,665.1794,533.16,657.82" style="stroke:#181818;stroke-width:1;"/></g><!--link User to UC7--><g class="link" data-entity-1="User" data-entity-2="UC7" data-source-line="62" data-uid="lnk42" id="link_User_UC7"><path d="M270.03,831.01 C279.72,827.8 289.91,824.64 299.54,822.03 C362.33,805.03 428.2407,791.4844 483.8707,781.1644" fill="none" id="User-to-UC7" style="stroke:#181818;stroke-width:1;"/><polygon fill="#181818" points="489.77,780.07,480.1914,777.7787,484.8539,780.982,481.6506,785.6445,489.77,780.07" style="stroke:#181818;stroke-width:1;"/></g><!--link User to UC8--><g class="link" data-entity-1="User" data-entity-2="UC8" data-source-line="63" data-uid="lnk43" id="link_User_UC8"><path d="M269.96,848.03 C323.82,848.03 407.56,848.03 477.18,848.03" fill="none" id="User-to-UC8" style="stroke:#181818;stroke-width:1;"/><polygon fill="#181818" points="483.18,848.03,474.18,844.03,478.18,848.03,474.18,852.03,483.18,848.03" style="stroke:#181818;stroke-width:1;"/></g><!--link User to UC9--><g class="link" data-entity-1="User" data-entity-2="UC9" data-source-line="64" data-uid="lnk44" id="link_User_UC9"><path d="M269.96,859.4 C328.02,873.43 421.9177,896.1114 493.2177,913.3314" fill="none" id="User-to-UC9" style="stroke:#181818;stroke-width:1;"/><polygon fill="#181818" points="499.05,914.74,491.2406,908.7389,494.1897,913.5662,489.3625,916.5153,499.05,914.74" style="stroke:#181818;stroke-width:1;"/></g><!--link User to UC10--><g class="link" data-entity-1="User" data-entity-2="UC10" data-source-line="65" data-uid="lnk45" id="link_User_UC10"><path d="M230.02,887.98 C246.11,965.09 293.03,1133.67 406.02,1211.03 C436,1231.56 469.1978,1239.9972 503.0478,1243.8172" fill="none" id="User-to-UC10" style="stroke:#181818;stroke-width:1;"/><polygon fill="#181818" points="509.01,1244.49,500.5153,1239.506,504.0415,1243.9293,499.6182,1247.4555,509.01,1244.49" style="stroke:#181818;stroke-width:1;"/></g><!--link User to UC11--><g class="link" data-entity-1="User" data-entity-2="UC11" data-source-line="66" data-uid="lnk46" id="link_User_UC11"><path d="M225.49,887.88 C233.79,977.36 267.91,1193.25 406.02,1281.03 C429.21,1295.77 451.2366,1303.9782 477.9266,1310.1982" fill="none" id="User-to-UC11" style="stroke:#181818;stroke-width:1;"/><polygon fill="#181818" points="483.77,1311.56,475.9127,1305.6217,478.9005,1310.4252,474.097,1313.4129,483.77,1311.56" style="stroke:#181818;stroke-width:1;"/></g><!--link User to UC12--><g class="link" data-entity-1="User" data-entity-2="UC12" data-source-line="67" data-uid="lnk47" id="link_User_UC12"><path d="M270.03,885.46 C306.2,913.37 357.93,951.59 406.02,981.03 C445.13,1004.97 485.9663,1025.7332 521.3763,1042.6532" fill="none" id="User-to-UC12" style="stroke:#181818;stroke-width:1;"/><polygon fill="#181818" points="526.79,1045.24,520.394,1037.7506,522.2786,1043.0843,516.9449,1044.9689,526.79,1045.24" style="stroke:#181818;stroke-width:1;"/></g><!--link User to UC13--><g class="link" data-entity-1="User" data-entity-2="UC13" data-source-line="68" data-uid="lnk48" id="link_User_UC13"><path d="M239.12,888.06 C265.26,947.32 322.34,1057.76 406.02,1117.03 C428.46,1132.93 450.146,1141.9291 476.706,1148.8891" fill="none" id="User-to-UC13" style="stroke:#181818;stroke-width:1;"/><polygon fill="#181818" points="482.51,1150.41,474.8179,1144.2592,477.6733,1149.1426,472.79,1151.9979,482.51,1150.41" style="stroke:#181818;stroke-width:1;"/></g><!--link Admin to UC14--><g class="link" data-entity-1="Admin" data-entity-2="UC14" data-source-line="70" data-uid="lnk49" id="link_Admin_UC14"><path d="M113.57,1454.03 C197.94,1454.03 358.57,1454.03 468.89,1454.03" fill="none" id="Admin-to-UC14" style="stroke:#181818;stroke-width:1;"/><polygon fill="#181818" points="474.89,1454.03,465.89,1450.03,469.89,1454.03,465.89,1458.03,474.89,1454.03" style="stroke:#181818;stroke-width:1;"/></g><!--link Admin to UC15--><g class="link" data-entity-1="Admin" data-entity-2="UC15" data-source-line="71" data-uid="lnk50" id="link_Admin_UC15"><path d="M113.57,1462.65 C205.79,1477.65 390.3479,1507.6761 498.1779,1525.2261" fill="none" id="Admin-to-UC15" style="stroke:#181818;stroke-width:1;"/><polygon fill="#181818" points="504.1,1526.19,495.8595,1520.7962,499.1649,1525.3868,494.5743,1528.6923,504.1,1526.19" style="stroke:#181818;stroke-width:1;"/></g><!--link Bank to UC_bank1--><g class="link" data-entity-1="Bank" data-entity-2="UC_bank1" data-source-line="73" data-uid="lnk51" id="link_Bank_UC_bank1"><path d="M600.42,56.29 C628.73,77.25 690.52,124.22 738.03,169.03 C773.05,202.05 770.28,223.41 811.03,249.03 C828.79,260.2 843.6915,266.9326 863.9315,273.4826" fill="none" id="Bank-to-UC_bank1" style="stroke:#181818;stroke-width:1;"/><polygon fill="#181818" points="869.64,275.33,862.3088,268.7533,864.8829,273.7905,859.8456,276.3646,869.64,275.33" style="stroke:#181818;stroke-width:1;"/></g><!--link Bank to UC_bank2--><g class="link" data-entity-1="Bank" data-entity-2="UC_bank2" data-source-line="74" data-uid="lnk52" id="link_Bank_UC_bank2"><path d="M600.58,52.3 C632.72,68.26 706.12,109.71 738.03,169.03 C755.38,201.28 733.08,216.78 746.03,251.03 C763.47,297.18 770.49,312.91 811.03,341.03 C829.62,353.92 846.2575,361.2335 868.1275,367.4335" fill="none" id="Bank-to-UC_bank2" style="stroke:#181818;stroke-width:1;"/><polygon fill="#181818" points="873.9,369.07,866.3322,362.7669,869.0896,367.7063,864.1502,370.4636,873.9,369.07" style="stroke:#181818;stroke-width:1;"/></g><!--link Bank to UC_bank3--><g class="link" data-entity-1="Bank" data-entity-2="UC_bank3" data-source-line="75" data-uid="lnk53" id="link_Bank_UC_bank3"><path d="M600.36,51.62 C653.16,74.31 823.3976,147.4707 909.8776,184.6407" fill="none" id="Bank-to-UC_bank3" style="stroke:#181818;stroke-width:1;"/><polygon fill="#181818" points="915.39,187.01,908.7009,179.7811,910.7963,185.0356,905.5419,187.131,915.39,187.01" style="stroke:#181818;stroke-width:1;"/></g><!--link UC10 to UC_ext1--><g class="link" data-entity-1="UC10" data-entity-2="UC_ext1" data-source-line="77" data-uid="lnk54" id="link_UC10_UC_ext1"><path d="M659.05,1246.03 C708.96,1246.03 770.14,1246.03 828.77,1246.03" fill="none" id="UC10-to-UC_ext1" style="stroke:#181818;stroke-width:1;stroke-dasharray:7,7;"/><polygon fill="#181818" points="834.77,1246.03,825.77,1242.03,829.77,1246.03,825.77,1250.03,834.77,1246.03" style="stroke:#181818;stroke-width:1;"/><text fill="#000000" font-family="sans-serif" font-size="13" lengthAdjust="spacing" textLength="55.497" x="747.03" y="1241.927">&#171;extend&#187;</text></g><!--link UC7 to UC_bank1--><g class="link" data-entity-1="UC7" data-entity-2="UC_bank1" data-source-line="78" data-uid="lnk55" id="link_UC7_UC_bank1"><path d="M651.6,742.36 C683.17,728.52 718.23,707.2 738.03,676.03 C749.51,657.96 742.32,601.11 746.03,580.03 C765.12,471.62 734.21,419.88 811.03,341.03 C824.02,327.7 835.1106,320.3456 852.6706,313.5856" fill="none" id="UC7-to-UC_bank1" style="stroke:#181818;stroke-width:1;stroke-dasharray:7,7;"/><polygon fill="#181818" points="858.27,311.43,848.4338,310.9304,853.6038,313.2263,851.3079,318.3963,858.27,311.43" style="stroke:#181818;stroke-width:1;"/><text fill="#000000" font-family="sans-serif" font-size="13" lengthAdjust="spacing" textLength="55.497" x="747.03" y="346.267">&#171;extend&#187;</text></g><!--link UC7 to UC_ext2--><g class="link" data-entity-1="UC7" data-entity-2="UC_ext2" data-source-line="79" data-uid="lnk56" id="link_UC7_UC_ext2"><path d="M700.36,758.86 C750.71,756.6 803.356,754.2492 852.566,752.0392" fill="none" id="UC7-to-UC_ext2" style="stroke:#181818;stroke-width:1;stroke-dasharray:7,7;"/><polygon fill="#181818" points="858.56,751.77,849.3896,748.1778,853.565,751.9943,849.7485,756.1698,858.56,751.77" style="stroke:#181818;stroke-width:1;"/><text fill="#000000" font-family="sans-serif" font-size="13" lengthAdjust="spacing" textLength="55.497" x="747.03" y="750.407">&#171;extend&#187;</text></g><!--link UC8 to UC_bank2--><g class="link" data-entity-1="UC8" data-entity-2="UC_bank2" data-source-line="80" data-uid="lnk57" id="link_UC8_UC_bank2"><path d="M684.28,845.17 C734.06,841.43 787.12,833.16 803.03,815.03 C817.83,798.16 796.48,428.13 811.03,411.03 C822.42,397.64 832.1667,390.9763 848.9367,385.9063" fill="none" id="UC8-to-UC_bank2" style="stroke:#181818;stroke-width:1;stroke-dasharray:7,7;"/><polygon fill="#181818" points="854.68,384.17,844.9075,382.9457,849.8939,385.6169,847.2227,390.6034,854.68,384.17" style="stroke:#181818;stroke-width:1;"/><text fill="#000000" font-family="sans-serif" font-size="13" lengthAdjust="spacing" textLength="55.497" x="747.03" y="810.927">&#171;extend&#187;</text></g><!--link UC8 to UC_ext3--><g class="link" data-entity-1="UC8" data-entity-2="UC_ext3" data-source-line="81" data-uid="lnk58" id="link_UC8_UC_ext3"><path d="M668.82,860.43 C693.62,863.56 720.87,866.47 746.03,868.03 C784.04,870.38 819.8515,870.5638 856.6115,869.7438" fill="none" id="UC8-to-UC_ext3" style="stroke:#181818;stroke-width:1;stroke-dasharray:7,7;"/><polygon fill="#181818" points="862.61,869.61,853.523,865.8117,857.6112,869.7215,853.7014,873.8097,862.61,869.61" style="stroke:#181818;stroke-width:1;"/><text fill="#000000" font-family="sans-serif" font-size="13" lengthAdjust="spacing" textLength="55.497" x="747.03" y="863.927">&#171;extend&#187;</text></g><!--SRC=[dLPDJzj04BtxLwno1pM1y56XI6sbSgrKzLO9kS6b4I51YL6Bsag4j70eQWezz8Yg_W4tnCGamVaBk_-eRyPhiquSb1A9uF7El7tpTcOsLUUjAzowQ5HsthbYkz9mocwbNhEQkvNQljsmzyI-NTwrTvoNxc7L4RHirtQgZcNPPRVU43dvKuQgfOxLMKxOJR5vu3JTPErIXdAepcGV_xlIKyVI9vizNpMTHkBuG_RaI0RoLWOCTiJEeJfYroVRUvLQudikFVWDUEMfNTkrB88I2mkVIdfxzezUy2vMGblaDklFg_NtueLzc1CVBO6FJf1Og3PJlCLteBw0pm0yJl3SYPtfSz1qodQJ0dvX-GW1Lmdj07ywLtM6TvqersVvZEWBUDxGLa9sXMf5640RgRQEAcH5gMznL23xwRXlEcw9upvR4_dzaMDI5lI6b2NYVSIhKtLEOijHTfANb1As6U6RKlGfDI7_0cX8Hw5QTo2U9h0yFqwFZ_CMMVdJECKPE87igWxAohlZWf8WvR710Cit2PP6MicMX2fqJ5MA-5WIFX3mwU9zBrkJtrZg4_LeVoBIWVz0jGL0FC6O4xYQoEf3u0mw3B8slxvHTOHSczzVrpAOtQGp9XNrDkkpH1lgPhwMmLm2ZQC8TIwluuPuD7SAd015jr5gCHHl7fT9Flz0FKGqQo03D8VU9oH739hLVT54QwjJH3EtDaJpMRJHNLT1vb3mPEZ30HClIe1gAvF-Z7wTdeh9U8bBwZyQrWEL7j5U08LGNe4aTOklljwhGbOh6uD4TIBq0IimZfYXUaTK6H52CJkx2zuj89hWvMEeqS5qzLGocthMOA903l71fgTFX8gRrMgpriQSe_FeHPjeQbjlS7_avuTEUkGUkBcg9bNHr8y-NtaaV622fGfZueGrkI0Ues6CYgTJPAslvTIaJafko_dWvgtfsumOjk2Ty3Iof454qsXYiX9KmPfi_p43UTamM0cdXpq1BLb8bczntDyblZXDgv1SzYM-vWnZsJIAfh5Y6gkciMOQwwQ1yMHQ-PHLI5bBLlA3enGrJCeiMXRzIj6chhZ9DuMfDq0b5c9niHGVbn2FnSO6dfpQTgc4vLKHBpFgx6KweQdejLHqOVOo7Sj4z3y0]--></g></svg>